HIERARCHY
ROOT pelvis
{
  OFFSET 0 100 0
  CHANNELS 6 Xposition Yposition Zposition Zrotation Xrotation Yrotation
  JOINT pelvis_right_femur
  {
    OFFSET -10.78128 -3.44521 -0.5502486
    CHANNELS 3 Zrotation Xrotation Yrotation
    JOINT right_femur_tibia
    {
      OFFSET -0.8047443 -44.0398 -0.1307829
      CHANNELS 3 Zrotation Xrotation Yrotation
      JOINT right_tibia_foot
      {
        OFFSET 3.006224 -47.83518 -5
        CHANNELS 3 Zrotation Xrotation Yrotation
        End Site
        {
          OFFSET 0 -5 15
        }
      }
    }
  }
  JOINT pelvis_left_femur
  {
    OFFSET 10.78128 -3.44521 -0.5502486
    CHANNELS 3 Zrotation Xrotation Yrotation
    JOINT left_femur_tibia
    {
      OFFSET 0.8047443 -44.0398 -0.1307829
      CHANNELS 3 Zrotation Xrotation Yrotation
      JOINT left_tibia_foot
      {
        OFFSET -4.370144 -48.10324 -4.275266
        CHANNELS 3 Zrotation Xrotation Yrotation
        End Site
        {
          OFFSET 0 -5 15
        }
      }
    }
  }
  JOINT pelvis_spine1
  {
    OFFSET 0 6.468898 -3.129235
    CHANNELS 3 Zrotation Xrotation Yrotation
    JOINT spine1
    {
      OFFSET 0 23.15396 4.99043
      CHANNELS 3 Zrotation Xrotation Yrotation
      JOINT spine2
      {
        OFFSET 0 20.79997 -5.064912
        CHANNELS 3 Zrotation Xrotation Yrotation
        JOINT neck
        {
          OFFSET 0 14.38658 9.616178
          CHANNELS 3 Zrotation Xrotation Yrotation
          End Site
          {
            OFFSET 0 20 0
          }
        }
      }
      JOINT right_manubrium
      {
        OFFSET -5.722621 16.35077 3.967754
        CHANNELS 3 Zrotation Xrotation Yrotation
        JOINT right_clavicle
        {
          OFFSET -13.16364 1.694482 -4.693211
          CHANNELS 3 Zrotation Xrotation Yrotation
          JOINT right_humerus
          {
            OFFSET -28.5034 -0.3100689 -2.792744
            CHANNELS 3 Zrotation Xrotation Yrotation
            JOINT right_radius
            {
              OFFSET -25.15693 0.02248979 -1.271978
              CHANNELS 3 Zrotation Xrotation Yrotation
              End Site
              {
                OFFSET -15 0 0
              }
            }
          }
        }
      }
      JOINT left_manubrium
      {
        OFFSET 5.722621 16.35077 3.967754
        CHANNELS 3 Zrotation Xrotation Yrotation
        JOINT left_clavicle
        {
          OFFSET 13.16364 1.694482 -4.693211
          CHANNELS 3 Zrotation Xrotation Yrotation
          JOINT left_humerus
          {
            OFFSET 29.39168 -1.063119 -2.237045
            CHANNELS 3 Zrotation Xrotation Yrotation
            JOINT left_radius
            {
              OFFSET 24.59957 -0.9528479 0.9047498
              CHANNELS 3 Zrotation Xrotation Yrotation
              End Site
              {
                OFFSET 15 -0 -0
              }
            }
          }
        }
      }
    }
  }
}
MOTION
Frames: 19
Frame Time: 0.0416666666667
0 103.5113 0 2.303768 -0.6761161 0.1514808 3.2077 -15.31268 11.78467 -0 38.93698 -0 -3.403897 -18.09414 -3.824748 -8.363538 9.154333 -22.32686 -0 5.113654 -0 21.23198 -7.658082 29.55106 -2.134641 -1.953336 5.200751 2.01656 10.49505 -6.958308 1.358516 21.35774 6.483245 3.732547 -24.36582 8.479185 5.767897 -18.95906 11.2542 85.56422 35.03887 -17.78395 -0 0 14.46664 -10.47509 8.998521 5.704914 6.26283 -21.07014 -2.126891 -92.50185 21.74145 21.44015 0 0 -14.16381 11.97221 14.36382 0.5317376
0.4076489 103.6989 1.643947 1.932247 0.3009185 0.1904627 3.931662 -17.53362 11.90653 -0 38.11316 -0 -3.685653 -17.55307 -3.419506 -8.376812 9.283209 -22.64266 -0 5.293155 -0 20.60936 -9.059184 29.72246 -2.133643 -1.865451 5.030736 2.120991 10.41791 -7.040351 1.360331 21.3002 6.534125 3.74956 -24.54542 8.517289 5.781178 -18.78638 11.29877 85.59442 34.98906 -17.85571 -0 0 14.24798 -10.53678 9.067204 5.802933 6.245791 -20.99322 -2.064409 -92.29913 21.67457 21.01399 0 0 -14.25255 11.89799 14.27814 0.4332801
0.8349122 102.6306 4.639888 1.093325 -2.94906 0.3696511 1.209166 -18.46959 0.6199803 -0 24.81167 -0 -7.407565 -7.991763 -1.462749 -6.497842 10.87843 -17.43565 -0 3.850625 -0 7.038619 -17.33611 21.39801 -2.164472 -2.09471 4.8096 2.377785 10.08945 -7.278699 1.428943 21.2104 6.586616 3.630674 -25.01422 8.82952 5.966706 -18.58798 11.22599 85.68929 34.86938 -18.54871 -0 0 14.22154 -9.557846 9.001862 5.383619 6.347441 -20.86351 -1.756686 -92.68929 22.68845 21.04774 0 0 -14.55962 11.32409 14.81048 1.218217
1.197876 101.7961 7.701161 0.8106745 -1.875479 0.4646762 1.699711 -21.20988 1.023739 -0 23.83877 -0 -7.189709 -7.447419 -1.497896 -6.508557 11.40725 -17.42753 -0 4.234022 -0 6.331001 -18.73216 21.03808 -2.196783 -2.258674 4.521402 2.648077 9.758262 -7.526924 1.481219 21.07363 6.690799 3.56998 -25.53185 9.130665 6.092556 -18.36959 11.18381 85.77814 34.67634 -19.12622 -0 0 14.18706 -8.80941 8.980666 5.053344 6.479009 -20.73453 -1.423185 -92.92863 23.32206 20.8533 0 0 -14.70007 10.96766 15.22094 1.562646
1.509246 101.1135 10.64073 0.4077517 0.1861523 0.5609108 3.071755 -25.68047 2.394762 -0 22.86661 -0 -7.033849 -7.074645 -0.9823016 -6.704998 11.65056 -17.9715 -0 5.000893 -0 7.450547 -19.73311 21.56954 -2.194486 -2.21111 4.120794 2.980256 9.397294 -7.787542 1.486919 20.89038 6.840626 3.557896 -26.10799 9.335657 6.162814 -18.0197 11.23934 85.80392 34.4622 -19.49916 -0 0 13.88097 -8.460093 9.07389 5.101652 6.492231 -20.53121 -1.118527 -92.81936 23.7317 20.2592 0 0 -15.00857 10.41992 15.30462 1.939739
1.755712 100.4622 13.71632 -0.0801808 1.786526 0.7195177 4.251549 -29.99324 2.815317 -0 20.70772 -0 -7.287704 -5.475269 -0.3889805 -6.661488 12.26443 -17.84078 -0 6.325655 -0 6.88927 -21.42475 21.07107 -2.160354 -2.042079 3.811967 3.216703 9.173476 -7.9663 1.445527 20.71581 6.987633 3.614945 -26.46948 9.37821 6.174341 -17.71699 11.34659 85.7833 34.3371 -19.61087 -0 0 13.50528 -8.570165 9.245684 5.381745 6.462232 -20.41585 -0.9560622 -92.47513 23.70315 19.58269 0 0 -15.35888 10.04402 15.10383 2.077331
1.935722 99.83114 17.14861 -0.5877958 3.0391 0.980644 5.282054 -33.75603 2.807217 -0 17.8664 -0 -7.679945 -3.410568 0.04585126 -6.425509 13.25802 -17.27577 -0 8.167046 -0 5.06227 -23.39712 19.70839 -2.108853 -1.851249 3.513955 3.444963 8.962144 -8.152333 1.381219 20.50134 7.167167 3.711864 -26.79727 9.3851 6.171318 -17.41291 11.47019 85.76051 34.21357 -19.71183 -0 0 13.10511 -8.793263 9.463993 5.713556 6.463929 -20.35949 -0.8031733 -92.05875 23.53297 18.84615 0 0 -15.80945 9.705886 14.82172 2.150114
2.061641 99.2408 21.16835 -1.087124 3.925111 1.392363 6.265141 -36.65388 2.590826 -0 14.72183 -0 -8.176131 -1.096684 0.3292375 -6.018618 14.56852 -16.33005 -0 10.84324 -0 2.440206 -25.05028 17.60143 -2.038632 -1.647706 3.218526 3.67791 8.745332 -8.358387 1.29472 20.23887 7.383473 3.843382 -27.11217 9.367268 6.154098 -17.09904 11.60691 85.74868 34.07547 -19.84569 -0 0 12.67132 -9.088291 9.72554 6.08466 6.502959 -20.36151 -0.6491108 -91.58808 23.28071 18.05617 0 0 -16.41209 9.352306 14.47311 2.230863
2.170483 98.74073 25.99079 -1.535035 4.19838 1.983667 7.109525 -37.63072 2.257525 -0 12.01764 -0 -8.665899 1.02553 0.2989338 -5.423002 15.93524 -14.96465 -0 14.63973 -0 -0.674876 -25.46351 14.79764 -1.945011 -1.416057 2.939391 3.906502 8.545647 -8.5768 1.182601 19.94013 7.622419 4.002436 -27.37693 9.29904 6.112405 -16.77525 11.7611 85.76833 33.92227 -20.01882 -0 0 12.16307 -9.49708 10.03068 6.524415 6.555185 -20.42778 -0.5349211 -91.03694 22.95292 17.21411 0 0 -17.22548 8.938819 14.01498 2.388732
2.32363 98.45317 31.65737 -1.93318 3.787789 2.690077 7.717149 -35.59171 2.122737 -0 11.05012 -0 -8.896868 2.107612 -0.2274434 -4.652832 16.48106 -13.30738 -0 19.77129 -0 -3.529854 -23.27771 11.70532 -1.838112 -1.163804 2.731415 4.079416 8.43781 -8.764553 1.05856 19.66762 7.828069 4.159491 -27.48988 9.15158 6.040437 -16.48413 11.91672 85.84604 33.77558 -20.20284 -0 0 11.59423 -10.0488 10.34181 7.010921 6.580901 -20.55737 -0.5404702 -90.42288 22.55167 16.40372 0 0 -18.17689 8.512099 13.44131 2.622703
2.550404 98.58151 37.87131 -2.406319 3.248667 3.28364 8.146951 -31.14039 2.549494 -0 12.49886 -0 -8.879302 1.477597 -0.9595247 -3.811622 15.05711 -11.88441 -0 26.62396 -0 -5.342027 -17.98561 9.035386 -1.746718 -0.9126372 2.672064 4.105675 8.536451 -8.840545 0.9581741 19.53558 7.909712 4.268937 -27.31186 8.907917 5.945147 -16.30028 12.03765 85.98516 33.68453 -20.28921 -0 0 11.0474 -10.75718 10.58205 7.477342 6.527449 -20.72018 -0.7562759 -89.80041 22.06077 15.75263 0 0 -19.00419 8.239821 12.79938 2.797912
2.774428 99.23677 44.27361 -2.849115 2.880083 3.480156 8.46841 -26.61163 3.196197 -0 14.43339 -0 -8.915036 -0.06245154 -1.489194 -3.154264 12.24529 -10.86856 -0 35.95383 -0 -6.243456 -11.79583 7.37627 -1.700103 -0.6878529 2.792381 3.931957 8.878326 -8.744198 0.915296 19.61869 7.821034 4.305847 -26.81692 8.600959 5.836487 -16.28043 12.09137 86.13854 33.67376 -20.14302 -0 0 10.65304 -11.5652 10.67729 7.851876 6.379025 -20.85894 -1.173289 -89.25975 21.49316 15.36445 0 0 -19.40397 8.280917 12.19153 2.740954
2.91483 100.3905 50.73255 -2.877791 1.843732 3.141588 8.736467 -22.48797 3.586874 -0 14.99074 -0 -9.106213 -0.9850072 -2.004572 -2.843872 9.323365 -9.680831 -0 47.30181 -0 -6.215659 -7.447829 7.426155 -1.701529 -0.516168 3.020943 3.639652 9.31775 -8.516624 0.9273665 19.85969 7.620673 4.278197 -26.20649 8.318206 5.723641 -16.40517 12.08382 86.23568 33.70502 -19.76954 -0 0 10.49862 -12.28531 10.61975 8.1035 6.172659 -20.91359 -1.634364 -88.91868 21.00471 15.29385 0 0 -19.30403 8.537606 11.74229 2.522975
3.006429 102.0657 56.99523 -2.61947 0.1969786 2.371897 8.94601 -17.61218 3.646283 -0 14.74439 -0 -9.85789 -1.445728 -2.160462 -2.689016 5.007616 -8.563718 -0 58.22712 -0 -5.433887 -4.945662 8.710042 -1.744207 -0.4071275 3.318069 3.299903 9.751023 -8.195355 0.9789951 20.20798 7.347369 4.186625 -25.60863 8.092645 5.619236 -16.65457 12.03613 86.22676 33.77978 -19.19611 -0 0 10.60701 -12.80952 10.43019 8.251891 5.91099 -20.85178 -2.051911 -88.84545 20.73311 15.60631 0 0 -18.73917 8.853161 11.50316 2.320104
3.143899 104.0656 62.73652 -2.117988 -1.38168 1.438133 8.574545 -11.87468 3.100881 -0 13.70702 -0 -11.04939 -2.412857 -1.553627 -2.4884 -1.787937 -7.932558 -0 65.59708 -0 -4.702065 -3.559323 9.718915 -1.82564 -0.3545884 3.737732 2.893205 10.1902 -7.751129 1.058644 20.67036 6.983305 4.022833 -24.97597 7.883885 5.51118 -17.07008 11.95644 86.06801 33.92899 -18.34809 -0 0 11.01675 -13.19373 10.11653 8.359439 5.566745 -20.67563 -2.442912 -89.06153 20.70864 16.41805 0 0 -17.73392 9.152891 11.4367 2.270498
3.369219 105.8048 67.95812 -1.169043 -2.732591 0.6681117 7.215277 -5.935097 1.916162 -0 11.66546 -0 -11.79948 -4.20607 -0.5417477 -2.010168 -9.933016 -7.278647 -0 65.94425 -0 -4.052982 -3.146393 9.948572 -1.924472 -0.372822 4.32122 2.414341 10.60262 -7.197054 1.135396 21.16935 6.577864 3.831089 -24.29951 7.663462 5.37306 -17.67956 11.84944 85.72012 34.15455 -17.21957 -0 0 11.77406 -13.50895 9.738611 8.477469 5.218619 -20.47164 -2.761724 -89.55481 20.87344 17.75328 0 0 -16.51872 9.402001 11.4915 2.43823
3.575357 106.7819 72.99168 -0.1051981 -4.125289 0.1694241 5.754947 -0.05886299 0.7883708 -0 9.643977 -0 -11.811 -6.399928 -0.04026955 -0.9069464 -16.47268 -5.972305 -0 58.81223 -0 -2.601268 -3.343609 11.15707 -1.991813 -0.4698559 5.018541 1.904164 10.9246 -6.625126 1.164829 21.55484 6.256551 3.711266 -23.63143 7.432893 5.187138 -18.43195 11.72684 85.21526 34.40643 -15.95686 -0 0 12.81735 -13.82914 9.407524 8.618188 5.024897 -20.39274 -2.943003 -90.20548 21.01604 19.38786 0 0 -15.46924 9.663213 11.59346 2.678471
3.651227 106.9249 78.02925 0.3886133 -6.093969 -0.3025028 5.406803 6.103732 0.1096976 -0 8.306152 -0 -11.45545 -8.675484 -0.551842 0.6289187 -19.50254 -4.53544 -0 47.88878 -0 -0.9158317 -3.671915 14.68642 -1.992996 -0.6386414 5.748526 1.416506 11.13056 -6.121884 1.125731 21.75769 6.083455 3.706048 -22.99488 7.196936 4.982173 -19.24781 11.60304 84.60585 34.63907 -14.72114 -0 0 14.02527 -14.15861 9.189548 8.77489 5.031367 -20.50089 -2.991802 -90.90587 21.04739 21.11514 0 0 -14.77623 9.922993 11.69644 2.95308
3.707913 106.486 83.05731 0.07530739 -7.29207 -0.9339128 5.91486 11.01885 -0.3505984 -0 7.212302 -0 -11.13012 -10.99281 -0.948705 2.302385 -21.19788 -3.42128 -0 36.11372 -0 -0.5063917 -3.838354 17.48758 -1.907012 -0.8823725 6.502171 0.9576144 11.23135 -5.71388 1.01025 21.77421 6.062812 3.820372 -22.32941 6.93428 4.804332 -20.10857 11.48202 83.86988 34.85374 -13.5493 -0 0 15.37247 -14.48775 9.111445 8.957224 5.222774 -20.81151 -2.939496 -91.63569 21.01847 22.92276 0 0 -14.51252 10.0867 11.78473 3.41028
